<?xml version="1.0" encoding="utf-8"?>
<!-- Generator: Adobe Illustrator 27.6.1, SVG Export Plug-In . SVG Version: 6.00 Build 0)  -->
<svg version="1.1" id="Layer_1" xmlns="http://www.w3.org/2000/svg" xmlns:xlink="http://www.w3.org/1999/xlink" x="0px" y="0px"
	 viewBox="0 0 720 720" style="enable-background:new 0 0 720 720;" xml:space="preserve">
<style type="text/css">
	.st0{fill:#23736D;}
	.st1{fill:#6EAFAC;}
	.st2{fill:#CAE8E7;}
</style>
<g>
	<rect x="182.9" y="271.9" class="st0" width="20.5" height="175.5"/>
	<rect x="139.1" y="301.2" class="st1" width="17.6" height="116.8"/>
	<rect x="100.3" y="328.5" class="st2" width="14.6" height="62.2"/>
	<g>
		<g>
			<path d="M248.1,344.7v-61h12.3v61H248.1z"/>
			<path d="M285,344.7v-61h12l25,40.8v-40.8h11.4v61h-12.4l-24.6-39.8v39.8H285z"/>
			<path d="M396.1,344.7v-60.5h12.3v50.2H439v10.3H396.1z"/>
			<path d="M460.2,344.7v-61h12.3v61H460.2z"/>
			<path d="M497.2,344.7v-61h12l25,40.8v-40.8h11.4v61h-12.4l-24.6-39.8v39.8H497.2z"/>
			<path d="M571.4,344.7v-61h45.2V294h-32.9v13.5h30.6v10.3h-30.6v16.6h34.1v10.3H571.4z"/>
		</g>
		<path d="M423.4,426.3c1.4-3.5,2-8.4,2-14.4v-34.7h-6.6v34.6c0,8-1.3,13.2-4,16.1c-2.7,2.8-7.1,4.3-13.3,4.3
			c-3.6,0-6.7-0.7-9.2-2.1c-2.6-1.4-4.4-3.5-5.4-6.2c-1-2.6-1.5-6.6-1.5-12v-34.6h-6.6v34.7c0,6.4,0.8,11.4,2.3,15.1
			c1.5,3.6,4,6.3,7.5,8.2c3.5,1.9,8.1,2.9,13.7,2.9c5.7,0,10.4-1.1,13.9-3.3C419.7,432.6,422.1,429.7,423.4,426.3z"/>
		<polygon points="356,377.2 308.9,377.2 308.9,383 329.1,383 329.1,437 335.7,437 335.7,383 356,383 		"/>
		<path d="M285.4,429.3c1.8-2.8,2.7-5.7,2.7-8.8c0-3.1-0.8-5.9-2.4-8.3c-1.6-2.4-4.2-4.4-7.6-6c-2.4-1.1-6.9-2.4-13.4-3.9
			c-6.8-1.5-10.9-3-12.6-4.5c-1.7-1.6-2.6-3.6-2.6-6c0-2.8,1.2-5.1,3.6-7.1c2.4-1.9,6.1-2.9,11.2-2.9c4.9,0,8.6,1.1,11.1,3.1
			c2.4,2,3.9,4.8,4.4,8.6l6.4-0.5c-0.2-3.2-1.2-6.1-2.8-8.6c-1.8-2.7-4.4-4.8-7.7-6.2c-3.4-1.4-7.3-2.1-11.7-2.1c-4,0-7.7,0.7-11,2
			c-3.2,1.3-5.7,3.3-7.4,5.8c-1.7,2.6-2.5,5.3-2.5,8.3c0,2.7,0.7,5.1,2,7.2c1.4,2.2,3.5,4,6.3,5.4c2.2,1.2,6.1,2.4,11.7,3.8
			c5.6,1.4,9.3,2.4,11,3c2.7,1,4.6,2.3,5.8,3.8c1.2,1.6,1.8,3.4,1.8,5.5c0,2-0.6,4-1.9,5.7c-1.2,1.7-3.1,3.1-5.6,4
			c-2.4,0.9-5.3,1.4-8.5,1.4c-3.6,0-6.8-0.6-9.7-1.9c-2.9-1.3-5.1-3-6.5-5c-1.3-1.9-2.1-4.3-2.6-7.2l-6.3,0.5c0.2,3.7,1.3,7,3.2,9.9
			c2,3.1,4.9,5.5,8.5,7c3.6,1.6,8.2,2.4,13.6,2.4c4.2,0,8.1-0.8,11.5-2.3C281.1,434.2,283.7,432,285.4,429.3z"/>
		<rect x="529.3" y="377.2" width="6.6" height="59.8"/>
		<path d="M496.8,427.6c1.6-2.3,3-5.2,4.1-8.7c1.1-3.5,1.6-7.6,1.6-12.2c0-5.4-0.8-10.2-2.4-14.3c-1.6-4.1-3.9-7.5-7-10.2l0,0
			c-2.4-2-5.3-3.5-8.7-4.2c-2.4-0.6-6.1-0.9-10.7-0.9h-20.4V437h21.4c3.6,0,6.9-0.3,9.7-1c2.8-0.7,5.1-1.7,7.1-3
			C493.4,431.7,495.2,429.9,496.8,427.6z M483.5,430.1c-2.4,0.8-5.6,1.2-9.7,1.2h-13.8V383h13.6c5,0,8.5,0.4,10.8,1.3
			c3.2,1.2,5.9,3.7,8,7.2c2.2,3.5,3.3,8.6,3.3,15.2c0,4.7-0.6,8.7-1.6,12c-1.1,3.3-2.7,6-4.7,8C487.8,428.2,485.9,429.3,483.5,430.1
			z"/>
		<path d="M615.6,423.5c2.4-4.8,3.7-10.3,3.7-16.3c0-6-1.2-11.4-3.5-16.1c-2.3-4.7-5.7-8.4-10.1-11c-4.4-2.6-9.4-4-14.9-4
			c-8.4,0-15.3,2.8-20.6,8.4c-5.3,5.6-8,13.5-8,23.4c0,5.2,1.2,10.3,3.4,15c2.3,4.7,5.6,8.4,10,11.1c4.4,2.7,9.5,4.1,15.1,4.1
			c5.2,0,10.1-1.2,14.5-3.7C609.6,431.9,613.1,428.3,615.6,423.5z M590.6,432.6c-6.2,0-11.4-2.2-15.5-6.6
			c-4.1-4.4-6.2-10.4-6.2-17.9c0-9.4,2.2-16.2,6.4-20.3c4.3-4.1,9.4-6.1,15.3-6.1c4.2,0,8,1.1,11.3,3.2c3.4,2.1,5.9,5.1,7.7,9
			c1.7,3.8,2.6,8.3,2.6,13.4c0,8-2.1,14.3-6.1,18.8C602.2,430.3,596.9,432.6,590.6,432.6z"/>
	</g>
</g>
</svg>
